<?xml version="1.0" encoding="utf-8"?>
<!-- Generator: Adobe Illustrator 15.0.0, SVG Export Plug-In . SVG Version: 6.00 Build 0)  -->
<!DOCTYPE svg PUBLIC "-//W3C//DTD SVG 1.1//EN" "http://www.w3.org/Graphics/SVG/1.1/DTD/svg11.dtd">
<svg version="1.1" id="Ebene_1" xmlns="http://www.w3.org/2000/svg" xmlns:xlink="http://www.w3.org/1999/xlink" x="0px" y="0px"
	 width="595.275px" height="841.89px" viewBox="0 0 595.275 841.89" enable-background="new 0 0 595.275 841.89"
	 xml:space="preserve">
<g id="rdf_triple">
</g>
<circle fill="#FFFFFF" cx="245.941" cy="255.662" r="32.402"/>
<g>
	<g>
		<g>
			<g>
				<path fill="#A7A8AA" d="M298.51,275.717v-24.437h9.075c4.343,0,7.26,1.685,7.26,6.352c0,2.204-0.714,3.986-2.69,4.991v0.065
					c3.5,0.453,4.991,2.819,4.991,6.223c0,5.12-4.375,6.806-8.848,6.806H298.51z M304.862,260.874h0.713
					c1.686,0,3.436-0.292,3.436-2.366c0-2.235-1.978-2.365-3.695-2.365h-0.453V260.874z M304.862,270.856h0.81
					c1.88,0,5.057,0.097,5.057-2.593c0-2.949-3.144-2.657-5.218-2.657h-0.648V270.856z"/>
				<path fill="#A7A8AA" d="M347.549,263.045c0,7.907-5.672,13.482-13.515,13.482s-13.515-5.575-13.515-13.482
					c0-7.39,6.481-12.575,13.515-12.575S347.549,255.656,347.549,263.045z M327.131,263.078c0,4.213,3.111,7.292,6.903,7.292
					s6.903-3.079,6.903-7.292c0-3.371-3.111-6.449-6.903-6.449S327.131,259.707,327.131,263.078z"/>
				<path fill="#A7A8AA" d="M357.373,271.471l-1.686,4.246h-6.741l9.399-24.437h6.936l9.204,24.437h-6.773l-1.588-4.246H357.373z
					 M361.813,258.832h-0.065l-2.625,7.778h5.283L361.813,258.832z"/>
			</g>
		</g>
	</g>
</g>
<g>
	<g>
		<path d="M298.541,288.708h1.474c1.629,0,2.996,0.595,2.996,2.425c0,0.726-0.273,1.344-0.88,1.748c1.069,0.262,1.7,1.224,1.7,2.294
			c0,1.783-1.438,2.496-3.21,2.496h-2.08V288.708z M299.54,292.655h0.38c1.129,0,2.092-0.13,2.092-1.521
			c0-1.354-0.855-1.497-2.08-1.497h-0.392V292.655z M299.54,296.745h0.998c1.117,0,2.294-0.273,2.294-1.641
			c0-1.391-1.331-1.593-2.425-1.593h-0.867V296.745z"/>
		<path d="M314.538,293.202c0,2.58-2.116,4.624-4.672,4.624s-4.671-2.044-4.671-4.624c0-2.567,2.115-4.647,4.671-4.647
			S314.538,290.634,314.538,293.202z M306.193,293.19c0,2.021,1.641,3.709,3.673,3.709s3.673-1.688,3.673-3.709
			c0-2.032-1.616-3.708-3.673-3.708S306.193,291.158,306.193,293.19z"/>
		<path d="M325.257,293.202c0,2.58-2.116,4.624-4.672,4.624s-4.671-2.044-4.671-4.624c0-2.567,2.115-4.647,4.671-4.647
			S325.257,290.634,325.257,293.202z M316.912,293.19c0,2.021,1.641,3.709,3.673,3.709s3.673-1.688,3.673-3.709
			c0-2.032-1.616-3.708-3.673-3.708S316.912,291.158,316.912,293.19z"/>
		<path d="M329.342,297.671h-0.998v-8.035h-2.163v-0.928h5.349v0.928h-2.188V297.671z"/>
		<path d="M337.091,290.457c-0.356-0.618-0.785-0.975-1.545-0.975c-0.797,0-1.486,0.57-1.486,1.391c0,0.772,0.797,1.129,1.402,1.402
			l0.595,0.262c1.165,0.511,2.151,1.094,2.151,2.52c0,1.569-1.26,2.77-2.817,2.77c-1.438,0-2.508-0.927-2.793-2.317l0.975-0.273
			c0.131,0.915,0.832,1.664,1.795,1.664s1.843-0.737,1.843-1.747c0-1.047-0.82-1.403-1.652-1.783l-0.547-0.238
			c-1.046-0.476-1.949-1.01-1.949-2.294c0-1.391,1.177-2.282,2.508-2.282c0.998,0,1.842,0.512,2.317,1.391L337.091,290.457z"/>
		<path d="M342.52,297.671h-0.998v-8.035h-2.163v-0.928h5.349v0.928h-2.188V297.671z"/>
		<path d="M347.438,297.671h-0.998v-8.963h1.296c1.699,0,3.28,0.452,3.28,2.473c0,1.379-0.867,2.354-2.246,2.473l2.853,4.018h-1.225
			l-2.71-3.935h-0.25V297.671z M347.438,292.857h0.31c1.129,0,2.271-0.214,2.271-1.604c0-1.474-1.082-1.616-2.282-1.616h-0.298
			V292.857z"/>
		<path d="M354.699,295.127l-1.081,2.544h-1.094l4.137-9.391l4.029,9.391h-1.105l-1.058-2.544H354.699z M356.638,290.611
			l-1.534,3.59h3.031L356.638,290.611z"/>
		<path d="M363.136,297.671h-0.998v-8.963h1.474c0.773,0,1.569,0.024,2.224,0.476c0.665,0.464,1.01,1.248,1.01,2.045
			c0,0.725-0.297,1.462-0.855,1.926c-0.606,0.499-1.379,0.594-2.128,0.594h-0.726V297.671z M363.136,292.822h0.666
			c1.105,0,2.045-0.333,2.045-1.616c0-1.463-1.177-1.569-2.342-1.569h-0.369V292.822z"/>
		<path d="M369.589,297.671h-0.998v-8.963h1.474c0.773,0,1.569,0.024,2.224,0.476c0.665,0.464,1.01,1.248,1.01,2.045
			c0,0.725-0.297,1.462-0.855,1.926c-0.606,0.499-1.379,0.594-2.128,0.594h-0.726V297.671z M369.589,292.822h0.666
			c1.105,0,2.045-0.333,2.045-1.616c0-1.463-1.177-1.569-2.342-1.569h-0.369V292.822z"/>
		<path d="M376.065,297.671h-0.999v-8.963h0.999V297.671z"/>
		<path d="M378.655,288.329l6.989,7.322v-6.942h0.998v9.367l-6.989-7.311v6.906h-0.998V288.329z"/>
		<path d="M397.314,293.167c0.023,1.212-0.107,2.211-0.928,3.162c-0.82,0.95-2.068,1.497-3.316,1.497
			c-2.52,0-4.612-2.092-4.612-4.611c0-2.568,2.093-4.66,4.672-4.66c1.569,0,2.841,0.701,3.792,1.938l-0.726,0.678
			c-0.748-1.058-1.759-1.688-3.078-1.688c-2.045,0-3.661,1.724-3.661,3.744c0,0.95,0.38,1.854,1.046,2.531
			c0.654,0.654,1.604,1.142,2.544,1.142c1.557,0,3.197-1.142,3.197-2.806h-2.662v-0.927H397.314z"/>
		<path d="M299.54,312.049h2.472v0.928h-3.471v-8.963h0.999V312.049z"/>
		<path d="M304.732,312.977h-0.999v-8.963h0.999V312.977z"/>
		<path d="M307.322,303.633l6.989,7.322v-6.941h0.998v9.367l-6.989-7.311v6.906h-0.998V303.633z"/>
		<path d="M322.701,304.014h1.343l-4.208,4.172l4.351,4.791h-1.379l-3.673-4.113l-0.249,0.25v3.863h-0.999v-8.963h0.999v3.84
			L322.701,304.014z"/>
		<path d="M325.622,304.014h4.647v0.928h-3.649v2.662h3.543v0.928h-3.543v3.518h3.649v0.928h-4.647V304.014z"/>
		<path d="M332.443,304.014h1.688c1.344,0,2.438,0.178,3.495,1.082c1.022,0.879,1.485,2.08,1.485,3.41
			c0,1.309-0.475,2.461-1.462,3.342c-1.069,0.949-2.14,1.129-3.542,1.129h-1.664V304.014z M334.167,312.049
			c1.094,0,2.009-0.154,2.829-0.928c0.737-0.689,1.117-1.627,1.117-2.627c0-1.021-0.393-2.008-1.165-2.686
			c-0.82-0.725-1.724-0.867-2.781-0.867h-0.725v7.107H334.167z"/>
		<path d="M344.397,304.014h1.688c1.344,0,2.438,0.178,3.495,1.082c1.022,0.879,1.485,2.08,1.485,3.41
			c0,1.309-0.475,2.461-1.462,3.342c-1.069,0.949-2.14,1.129-3.542,1.129h-1.664V304.014z M346.121,312.049
			c1.094,0,2.009-0.154,2.829-0.928c0.737-0.689,1.117-1.627,1.117-2.627c0-1.021-0.393-2.008-1.165-2.686
			c-0.82-0.725-1.724-0.867-2.781-0.867h-0.726v7.107H346.121z"/>
		<path d="M353.916,310.432l-1.081,2.545h-1.094l4.137-9.391l4.029,9.391h-1.105l-1.058-2.545H353.916z M355.854,305.916
			l-1.534,3.59h3.031L355.854,305.916z"/>
		<path d="M363.375,312.977h-0.998v-8.035h-2.163v-0.928h5.349v0.928h-2.188V312.977z"/>
		<path d="M368.044,310.432l-1.081,2.545h-1.094l4.137-9.391l4.029,9.391h-1.105l-1.058-2.545H368.044z M369.981,305.916
			l-1.533,3.59h3.031L369.981,305.916z"/>
	</g>
</g>
<g>
	<g>
		<path fill="#A7A8AA" d="M286.065,216.636c-3.409-0.821-6.835,1.277-7.656,4.685c-0.113,0.478-0.166,0.957-0.17,1.429
			c-0.491,0.425-2.177,1.793-4.116,2.395c-1.767,0.548-3.729,0.45-4.554,0.375c-0.855-1.222-2.139-2.149-3.701-2.526
			c-2.507-0.603-5.02,0.377-6.503,2.289c-2.178-0.968-4.479-1.712-6.874-2.198c0.175-0.288,0.313-0.608,0.502-0.96
			c0.428-0.802,1.242-2.33,1.046-3.243c-0.104-0.481-0.514-0.723-0.962-0.843c-0.871-0.226-1.67,0.007-2.542-0.007
			c-0.734-0.01-1.404-0.393-2.131-0.46c-1.479-0.131-2.812-0.417-4.311-0.167c-0.54,0.089-5.828,0.646-7.067,0.812
			c-1.561,0.209-3.141,0.521-4.614,1.073c-1.769,0.667-3.054,2.01-4.34,3.326c-2.263,2.316-4.536,5.532-7.001,9.234
			c-0.594,0.89-1.582,2.536-2.874,4.719c-2.99,4.429-4.94,9.988-5.513,15.711c-0.005,0.051-0.009,0.104-0.015,0.153
			c-0.042,0.45-0.076,0.897-0.102,1.347c-0.009,0.132-0.017,0.266-0.022,0.399c-0.023,0.52-0.039,1.041-0.039,1.56
			c0,18.401,14.918,33.321,33.322,33.321c18.403,0,33.32-14.92,33.32-33.321c0-2-0.177-3.958-0.515-5.861
			c3.22,0.487,6.334-1.561,7.108-4.787c0.652-2.715-0.549-5.438-2.787-6.849c-0.158-0.52-0.536-2.18,0.086-4.771
			c0.661-2.736,1.852-4.053,2.16-4.356c2.613-0.257,4.898-2.128,5.546-4.826C291.569,220.882,289.472,217.456,286.065,216.636z
			 M273.216,271.995c0.896-3.271,1.563-8.182,0.206-13.063c-2.136-7.69-8.62-14.148-18.897-15.915l3.633,4.266l0.781,3.603
			c8.623,4.56,9.969,14.812,4.652,22.785c-3.842,5.765-12.328,7.894-20.381,6.97c-11.654-1.336-20.047-9.54-23.034-19.752
			c-0.678-2.125-1.076-4.379-1.155-6.72c-0.024-0.451-0.04-0.906-0.044-1.359c-0.002-0.162,0.02-0.339,0.056-0.524
			c0.273-6.7,3.176-12.686,7.662-16.861c1.205-1.206,2.583-2.229,4.129-2.953c0.826-0.388,2.507,0.099,3.315,0.002
			c0.757-0.091,1.379-0.639,2.141-0.705c1.815-0.154,3.968,2.363,7.307,3.872c0.886,0.428,2.992,0.802,3.999,0.685
			c0.719-0.085,2.327-0.025,2.619-0.87c-0.701-0.428-1.516-0.599-2.26-0.933c0.567-0.631,1.049-1.273,1.263-1.849
			c0.2-0.548,0.557-1.681,0.199-2.824c-0.183,1.397-0.828,3.102-2.424,4.155c-0.402-0.244-0.796-0.514-1.178-0.781
			c-1.351-0.944-2.586-2.04-3.812-3.136c-0.9-0.806-1.539-1.86-2.441-2.664c-0.242-0.213-1.466-1.317-0.599-1.495
			c0.556-0.117,1.141,0.353,1.659,0.484c0.502,0.128,0.947,0.296,1.472,0.227c1.194-0.158,2.408-0.229,3.595-0.397
			c1.178-0.168,2.324-0.68,3.434-1.052c0.395-0.131,1.111-0.471,1.111-0.471c0.49,1.301-0.967,3.03-1.893,3.778
			c0.855-0.253,1.94-1.127,2.514-1.797c0.498-0.582,0.983-1.374,1.229-2.193c2.271,0.452,4.456,1.146,6.526,2.054
			c-0.16,0.354-0.294,0.727-0.386,1.117c-0.819,3.406,1.278,6.834,4.683,7.653c1.697,0.407,3.397,0.094,4.779-0.744
			c0.739,0.253,2.102,0.878,3.656,2.394c0.38,0.371,0.696,0.729,0.977,1.073c0.518,0.773,1.003,1.57,1.452,2.39
			c0.053,0.132,0.098,0.255,0.13,0.354c-0.205,0.415-0.372,0.857-0.485,1.328c-0.729,3.038,0.863,6.089,3.635,7.295
			c0.412,2.043,0.637,4.154,0.637,6.32C277.677,261.678,276.046,267.236,273.216,271.995z M281.241,233.038
			c-0.467,1.933-1.689,3.679-2.109,4.239c-0.932,0.064-1.824,0.341-2.623,0.783c-0.771-0.309-2.56-1.115-3.883-2.406
			c-1.314-1.288-2.161-3.048-2.489-3.814c0.175-0.378,0.315-0.775,0.416-1.195c0.126-0.522,0.174-1.044,0.169-1.557
			c0.524-0.512,1.742-1.485,3.95-2.171c2.573-0.795,4.263-0.511,4.774-0.391c0.487,0.673,1.104,1.253,1.829,1.694
			C281.38,228.799,281.726,231.015,281.241,233.038z"/>
	</g>
	<path fill="#FFFFFF" d="M267.003,224.333c-0.412-0.224-0.856-0.404-1.334-0.519c-2.952-0.712-5.926,1.106-6.636,4.061
		c-0.259,1.076-0.179,2.152,0.165,3.123c-0.163-1.621,0.448-3.396,1.766-4.781c0.133,0.296,0.379,0.538,0.72,0.619
		c0.577,0.139,1.16-0.215,1.3-0.796c0.101-0.424-0.068-0.847-0.391-1.1C264.018,224.145,265.621,223.937,267.003,224.333z"/>
	<path fill="#FFFFFF" d="M287.209,217.977c-0.413-0.227-0.859-0.407-1.339-0.522c-2.957-0.709-5.93,1.107-6.64,4.062
		c-0.259,1.079-0.179,2.158,0.168,3.13c-0.161-1.556,0.392-3.257,1.597-4.617c0.145,0.198,0.348,0.354,0.604,0.418
		c0.579,0.139,1.161-0.218,1.297-0.796c0.088-0.364-0.031-0.713-0.265-0.969C284.101,217.809,285.772,217.561,287.209,217.977z"/>
	<path fill="#FFFFFF" d="M282.208,238.781c-0.417-0.228-0.863-0.409-1.346-0.524c-2.956-0.71-5.927,1.107-6.637,4.062
		c-0.26,1.08-0.179,2.159,0.168,3.133c-0.175-1.692,0.494-3.555,1.93-4.963c0.137,0.278,0.376,0.501,0.698,0.578
		c0.582,0.142,1.164-0.219,1.3-0.793c0.094-0.381-0.042-0.75-0.301-1.007C279.39,238.574,280.897,238.401,282.208,238.781z"/>
</g>
<path d="M248.56,250.18h-9.094c-0.475,0-0.86-0.385-0.86-0.86c0-0.478,0.386-0.862,0.86-0.862h9.094
	c0.477,0,0.861,0.385,0.861,0.862C249.421,249.795,249.036,250.18,248.56,250.18z"/>
<path d="M253.002,254.145h-13.536c-0.475,0-0.86-0.387-0.86-0.862c0-0.477,0.386-0.863,0.86-0.863h13.536
	c0.476,0,0.861,0.387,0.861,0.863C253.863,253.758,253.478,254.145,253.002,254.145z"/>
<path d="M253.002,258.11h-13.536c-0.475,0-0.86-0.389-0.86-0.863c0-0.476,0.386-0.863,0.86-0.863h13.536
	c0.476,0,0.861,0.388,0.861,0.863C253.863,257.721,253.478,258.11,253.002,258.11z"/>
<path fill="#FFFFFF" d="M249.548,220.08c-0.528-0.076-0.76-0.121-1.239-0.153c-0.24-0.02-0.69-0.161-0.667-0.03
	c0.219,1.18-0.416,1.64-0.502,1.652c-0.098,0.012-0.007-1.529-0.115-1.506c-0.535,0.117-1.184,0.358-1.639,0.541
	c-0.286,0.088-0.568,0.188-0.852,0.275l-1.593,0.563c-0.058,0.023-0.093,0.088-0.071,0.15c0.019,0.059,0.082,0.093,0.145,0.073
	l1.616-0.478c0.16-0.049,0.323-0.089,0.481-0.13c0.757,0.537,1.508,0.794,2.033,0.729c0.811-0.101,1.124-0.449,1.256-1.07
	c0.125-0.27,0.78-0.173,1.16-0.382l0.033-0.019c0.032-0.019,0.056-0.052,0.058-0.092C249.658,220.142,249.61,220.09,249.548,220.08z
	"/>
<g>
	<path d="M258.112,274.108h-23.756c-0.477,0-0.862-0.387-0.862-0.864v-32.347c0-0.477,0.386-0.861,0.862-0.861h16.314
		c0.202,0,0.397,0.071,0.552,0.199l7.441,6.203c0.197,0.164,0.311,0.404,0.311,0.661v26.145
		C258.975,273.721,258.588,274.108,258.112,274.108z M235.218,272.382h22.033v-24.88l-6.892-5.743h-15.142V272.382z"/>
</g>
<path fill="#A7A8AA" d="M252.989,262.229c-0.391-0.217-2.278,0.631-3.201,1.342c-2.033,1.573-4.95,2.139-8.094,2.139
	c-6.855,0-10.141-2.392-10.692-7.176c-0.251-2.18,0.706-5.116,2.504-6.073v-6.816c-5.284,2.138-8.04,7.605-8.08,11.798
	c-0.056,5.517,2.851,11.326,13.124,11.406c6.384,0.048,11.89-1.45,14.09-4.653C253.101,263.521,253.38,262.444,252.989,262.229z"/>
</svg>
